<?xml version="1.0" encoding="UTF-8"?>
<svg id="Layer_1" data-name="Layer 1" xmlns="http://www.w3.org/2000/svg" viewBox="100 395 850 300">
  <defs>
    <style>
      .cls-1 {
        font-size: 73.72px;
      }

      .cls-1, .cls-2 {
        font-family: ExpoArabic-SemiBold, 'Expo Arabic';
        font-weight: 600;
      }

      .cls-1, .cls-2, .cls-3, .cls-4 {
        fill: #2d2d2d;
      }

      .cls-2 {
        font-size: 41.9px;
      }

      .cls-3 {
        opacity: .3;
      }
    </style>
  </defs>
  <g>
    <circle class="cls-4" cx="826.2" cy="486.99" r="8.29"/>
    <path class="cls-4" d="M919.49,648.14c-2.55,15.82-16.21,29.11-31.92,31.85-22.4,3.91-45.15-7.97-59.39-24.71-.2-.24-.39-.47-.59-.7-2.71-3.08-5.64-7.43-7.33-10.06-.91-1.41-1.71-2.88-2.42-4.39h0c-.83-1.8-1.8-3.53-2.92-5.16-7.85-11.46-20.42-21.73-34.89-20.65-7.4.55-14.14,4.03-18.86,9.7-2.69,3.22-2.97,4.13-1.46,5.7-5.95-5.77-9.36-12.11-9.36-12.11,13.24-15.96,33.89-19.66,53.31-13.91,12.45,3.69,23.42,12.2,32.37,21.3l12.56,14.04c7.27,7.63,17.19,14.36,27.32,17.49.41.13.82.25,1.24.36,14.23,3.98,29.51.84,41.35-7.99l1-.74Z"/>
    <path class="cls-4" d="M879.32,542.68c11.93,31.14,5.1,67.08-18.56,91.2,0,0-2.75,2.63-6.65,5.91-1.06-.97-2.09-1.98-3.09-3.02l-10.09-11.28c1.81-2.11,3.72-4.55,5.71-7.38,10.45-15.29,12.6-34.44,12.45-52.57-24.68,4.35-42.57-18.67-31.47-41.7,4.66-9.66,14.2-12.85,20.07-21.44,13.21-19.31-1.3-37.35-21.14-41.85-25.13-5.69-52.17,8.48-68.46,26.94-29.82,33.79-33.07,85.02-7.74,122.3,0,0,.36.66,1.05,1.78,1.57,2.52,4.84,7.33,9.48,11.83.04.04.08.08.12.12.66.68,1.6,1.46,2.78,2.54.13.12.26.24.39.36,14.46,13.37,31.15,20.19,51.01,15.8.68,1.41,1.45,2.78,2.29,4.08,1.88,2.92,4.64,6.98,7.29,10.06-37.98,12.23-80.56-1.2-99.68-38.44-23.46-45.68-10.79-102.3,24.24-138.1,7.11-7.27,15.92-14.54,25.11-18.9.02-.02.02-.04.02-.06,0-.08-.09-.19-.26-.31-6.49-4.7-11.64-11.03-14.12-18.65-4.89-15.01-7.57-34.44,15.61-25.67l10.37,5.4c-1.96-5.1-10.48-20.14-1.26-22,12.52-2.54,27.32,8.3,35,17.32l7.21,10.22c.66-5.39-.89-12.86,0-17.99,1.27-7.35,13.11-.23,16.31,2.51,8.07,6.9,13.59,18.3,16.44,30.02,4.14,23.17-1.35,34.24-1.17,34.33,10.97.09,27.11,19.5,27.11,19.5-.22.03-.44.06-.66.1-1.22.19-3.69.59-5.73.91-1.38.22-2.57.41-3.04.49-1.01.17-2.06.38-3.12.61-5.81,1.09-11.37,2.29-16.69,3.57,5.95,9.43,10.22,16.62,13.39,22.32.25.46.5.91.74,1.35.44.81.88,1.61,1.29,2.38.14.25.27.49.4.74,1.18,2.18,2.22,4.13,2.99,5.6,1.55,2.96,2.9,5.99,4.08,9.06Z"/>
    <path class="cls-3" d="M879.28,496.57c1.93-.33,3.84-.63,5.73-.91-1.22.19-3.69.59-5.73.91Z"/>
  </g>
  <text class="cls-2" transform="translate(168.23 600.53)"><tspan x="0" y="0">AL-QUDAIRANI COMPANY</tspan></text>
  <text class="cls-1" transform="translate(167.62 525.3)"><tspan x="0" y="0">شركــة القديراني</tspan></text>
</svg>